<svg xmlns="http://www.w3.org/2000/svg" width="17.629" height="17.629" viewBox="0 0 17.629 17.629">
  <g id="Group_3782" data-name="Group 3782" transform="translate(0.001)">
    <path id="Path_3165" data-name="Path 3165" d="M30.857,0H22.772A4.777,4.777,0,0,0,18,4.772v8.085a4.777,4.777,0,0,0,4.772,4.772h8.085a4.777,4.777,0,0,0,4.772-4.772V4.772A4.777,4.777,0,0,0,30.857,0ZM26.815,13.635a4.82,4.82,0,1,1,4.82-4.82A4.826,4.826,0,0,1,26.815,13.635Zm4.936-8.5a1.424,1.424,0,1,1,1.424-1.424A1.426,1.426,0,0,1,31.75,5.131Z" transform="translate(-18.001)" fill="#fff"/>
    <path id="Path_3166" data-name="Path 3166" d="M25.494,3.708a3.787,3.787,0,1,0,3.787,3.787A3.791,3.791,0,0,0,25.494,3.708Z" transform="translate(-16.681 1.32)" fill="#fff"/>
  </g>
</svg>
