<svg xmlns="http://www.w3.org/2000/svg" width="17.629" height="17.629" viewBox="0 0 17.629 17.629">
  <path id="linkedin_2_" data-name="linkedin (2)" d="M8.815,0a8.815,8.815,0,1,0,8.815,8.815A8.816,8.816,0,0,0,8.815,0ZM6.253,13.325H4.106V6.867H6.253ZM5.18,5.985H5.166a1.119,1.119,0,1,1,.028-2.232A1.119,1.119,0,1,1,5.18,5.985Zm8.814,7.341H11.848V9.87c0-.868-.311-1.461-1.088-1.461a1.175,1.175,0,0,0-1.1.785,1.47,1.47,0,0,0-.071.524v3.607H7.441s.028-5.853,0-6.459H9.588v.914a2.131,2.131,0,0,1,1.935-1.066c1.412,0,2.471.923,2.471,2.907Zm0,0" fill="#fff"/>
</svg>
