<svg xmlns="http://www.w3.org/2000/svg" width="17.629" height="17.629" viewBox="0 0 17.629 17.629">
  <path id="Path_3168" data-name="Path 3168" d="M44.815,0a8.815,8.815,0,1,0,8.815,8.815A8.816,8.816,0,0,0,44.815,0Zm4.025,6.873q.006.13.006.261a5.717,5.717,0,0,1-5.757,5.756h0a5.726,5.726,0,0,1-3.1-.909,4.112,4.112,0,0,0,.482.028,4.059,4.059,0,0,0,2.513-.866,2.026,2.026,0,0,1-1.89-1.405,2.017,2.017,0,0,0,.914-.035,2.024,2.024,0,0,1-1.623-1.983c0-.009,0-.017,0-.026a2.01,2.01,0,0,0,.916.253,2.025,2.025,0,0,1-.626-2.7,5.744,5.744,0,0,0,4.17,2.114,2.024,2.024,0,0,1,3.448-1.845,4.057,4.057,0,0,0,1.285-.491,2.031,2.031,0,0,1-.89,1.119,4.035,4.035,0,0,0,1.162-.319A4.113,4.113,0,0,1,48.839,6.873Z" transform="translate(-36)" fill="#fff"/>
</svg>
